<svg id="diagram-new" class="fbd-diagram" xmlns="http://www.w3.org/2000/svg" width="100%" viewBox="0 0 125 124" preserveAspectRatio="xMidYMid meet" font-size="16px" data-fbd="{&quot;numStrings&quot;:6,&quot;numFrets&quot;:4,&quot;grid&quot;:[[null,null,null,null,null,null,null,null],[null,null,null,null,{&quot;dot&quot;:true,&quot;label&quot;:&quot;5&quot;},null,{&quot;dot&quot;:true,&quot;class&quot;:&quot;fbd-note-optional&quot;,&quot;label&quot;:&quot;3&quot;},null],[null,null,null,null,null,{&quot;label&quot;:&quot;R&quot;,&quot;dot&quot;:true,&quot;class&quot;:&quot;fbd-note-root&quot;},null,null],[null,null,null,{&quot;dot&quot;:true,&quot;label&quot;:&quot;3&quot;},null,null,null,null],[null,{&quot;dot&quot;:true,&quot;class&quot;:&quot;fbd-note-optional&quot;,&quot;label&quot;:&quot;5&quot;},{&quot;dot&quot;:true,&quot;class&quot;:&quot;fbd-note-root&quot;,&quot;label&quot;:&quot;R&quot;},null,null,null,null,null]]}"><style type="text/css">/* <![CDATA[ */
 .fbd-grid { stroke: #999; } .fbd-grid-background { fill: #fff; } .fbd-diagram { font-family: "Helvetica Neue",Helvetica,Arial,sans-serif; font-weight: 500; } .fbd-inlays { fill: #f5f5f5; stroke: #ddd; } .fbd-positions text { fill: #333; text-anchor: middle; } .fbd-positions circle + text { fill: #fff; } .fbd-dots { fill: #000; stroke: none; } .fbd-note-footer { font-size: 75%; text-anchor: middle; fill: #000; } .fbd-note-root circle { fill: green; } .fbd-note-optional circle { fill: #fff; stroke: #999; stroke-dasharray: 5,2; } .fbd-note-optional circle + text { fill: #666; } .fbd-note-chromatic circle { fill: #fcc; } .fbd-note-chromatic circle + text { fill: #000; }
/* ]]> */
</style><g class="fbd-grid"><rect class="fbd-grid-background" x="10" y="10" width="105" height="100"></rect><path class="fbd-frets" d=" M10 10 h105 M10 35 h105 M10 60 h105 M10 85 h105 M10 110 h105"></path><path class="fbd-strings" d=" M10 10 v100 M31 10 v100 M52 10 v100 M73 10 v100 M94 10 v100 M115 10 v100"></path></g><g class="fbd-positions"><g class="fbd-pos-4-1"><circle cx="73" cy="23" r="9.5"></circle><text x="73" y="28.5">5</text></g><g class="fbd-pos-6-1 fbd-note-optional"><circle cx="115" cy="23" r="9.5"></circle><text x="115" y="28.5">3</text></g><g class="fbd-pos-5-2 fbd-note-root"><circle cx="94" cy="48" r="9.5"></circle><text x="94" y="53.5">R</text></g><g class="fbd-pos-3-3"><circle cx="52" cy="73" r="9.5"></circle><text x="52" y="78.5">3</text></g><g class="fbd-pos-1-4 fbd-note-optional"><circle cx="10" cy="98" r="9.5"></circle><text x="10" y="103.5">5</text></g><g class="fbd-pos-2-4 fbd-note-root"><circle cx="31" cy="98" r="9.5"></circle><text x="31" y="103.5">R</text></g></g></svg>